<svg width="24" height="24" viewBox="0 0 24 24" fill="none" xmlns="http://www.w3.org/2000/svg">
<path d="M12.6547 11.6464L12.3011 12L12.6547 12.3536L16.4248 16.1237C16.4623 16.1636 16.4829 16.2165 16.4825 16.2713C16.482 16.3271 16.4596 16.3806 16.4201 16.4201C16.3806 16.4596 16.3271 16.482 16.2713 16.4825C16.2165 16.4829 16.1636 16.4623 16.1237 16.4248L12.3536 12.6547L12 12.3011L11.6464 12.6547L7.87236 16.4288L7.8723 16.4287L7.86627 16.435C7.84662 16.4553 7.82311 16.4715 7.79712 16.4827C7.77112 16.4939 7.74317 16.4997 7.71489 16.5C7.6866 16.5002 7.65855 16.4948 7.63237 16.4841L7.44303 16.9469L7.63236 16.4841C7.60619 16.4734 7.5824 16.4576 7.5624 16.4376C7.5424 16.4176 7.52658 16.3938 7.51586 16.3676C7.50515 16.3415 7.49976 16.3134 7.50001 16.2851C7.50025 16.2568 7.50613 16.2289 7.5173 16.2029C7.52846 16.1769 7.54469 16.1534 7.56504 16.1337L7.56509 16.1338L7.57123 16.1276L11.3453 12.3536L11.6989 12L11.3453 11.6464L7.57521 7.87633C7.53774 7.8364 7.51706 7.78354 7.51753 7.72871C7.51802 7.67285 7.54042 7.61942 7.57992 7.57992C7.61942 7.54042 7.67285 7.51802 7.72871 7.51753C7.78354 7.51706 7.8364 7.53774 7.87633 7.57521L11.6464 11.3453L12 11.6989L12.3536 11.3453L16.1276 7.57123L16.1277 7.57129L16.1337 7.56504C16.1534 7.54469 16.1769 7.52846 16.2029 7.5173C16.2289 7.50613 16.2568 7.50025 16.2851 7.50001C16.3134 7.49976 16.3415 7.50515 16.3676 7.51586C16.3938 7.52658 16.4176 7.5424 16.4376 7.56239C16.4576 7.5824 16.4734 7.60619 16.4841 7.63236L16.9469 7.44303L16.4841 7.63237C16.4948 7.65855 16.5002 7.6866 16.5 7.71488C16.4997 7.74317 16.4939 7.77112 16.4827 7.79712C16.4715 7.82311 16.4553 7.84662 16.435 7.86627L16.4349 7.86621L16.4288 7.87236L12.6547 11.6464Z" fill="#374151" stroke="#374151"/>
</svg>
